<?xml version="1.0" encoding="UTF-8" standalone="no"?>
<!-- Created with Inkscape (http://www.inkscape.org/) -->

<svg
   xmlns:dc="http://purl.org/dc/elements/1.1/"
   xmlns:cc="http://creativecommons.org/ns#"
   xmlns:rdf="http://www.w3.org/1999/02/22-rdf-syntax-ns#"
   xmlns:svg="http://www.w3.org/2000/svg"
   xmlns="http://www.w3.org/2000/svg"
   xmlns:sodipodi="http://sodipodi.sourceforge.net/DTD/sodipodi-0.dtd"
   xmlns:inkscape="http://www.inkscape.org/namespaces/inkscape"
   width="25mm"
   height="25mm"
   viewBox="0 0 25 25"
   version="1.1"
   id="svg8"
   inkscape:version="0.92.1 r15371"
   sodipodi:docname="LogoRichardBlanco2020.svg">
  <defs
     id="defs2" />
  <sodipodi:namedview
     id="base"
     pagecolor="#ffffff"
     bordercolor="#666666"
     borderopacity="1.0"
     inkscape:pageopacity="0.0"
     inkscape:pageshadow="2"
     inkscape:zoom="4"
     inkscape:cx="11.478784"
     inkscape:cy="46.272399"
     inkscape:document-units="mm"
     inkscape:current-layer="layer1"
     showgrid="false"
     inkscape:window-width="1920"
     inkscape:window-height="1001"
     inkscape:window-x="-9"
     inkscape:window-y="-9"
     inkscape:window-maximized="1"
     inkscape:pagecheckerboard="true" />
  <metadata
     id="metadata5">
    <rdf:RDF>
      <cc:Work
         rdf:about="">
        <dc:format>image/svg+xml</dc:format>
        <dc:type
           rdf:resource="http://purl.org/dc/dcmitype/StillImage" />
        <dc:title></dc:title>
      </cc:Work>
    </rdf:RDF>
  </metadata>
  <g
     inkscape:label="Layer 1"
     inkscape:groupmode="layer"
     id="layer1"
     transform="translate(0,-272)">
    <path
       style="fill:#ffffff;stroke-width:0.028032"
       d="m 12.38994,294.60601 c -1.424857,-0.10317 -2.802764,-0.52238 -4.0383109,-1.22859 l -0.284166,-0.16243 -0.351847,0.13121 -0.351846,0.13121 -1.80636,-0.10074 c -0.993497,-0.0554 -1.865006,-0.11016 -1.936686,-0.12167 l -0.130327,-0.0209 1.704852,-1.92316 c 0.937669,-1.05774 1.701936,-1.92614 1.698371,-1.92977 -0.0036,-0.004 -0.393351,0.0567 -0.866192,0.13402 -0.878646,0.14373 -2.266519,0.37116 -2.665266,0.43678 -0.122222,0.0201 -0.224708,0.0344 -0.227746,0.0318 -0.0055,-0.005 0.228912,-0.27949 2.318024,-2.71834 0.584375,-0.6822 1.0625,-1.25094 1.0625,-1.26387 0,-0.0129 -0.109375,-0.0238 -0.243055,-0.0242 -0.133681,-3.6e-4 -0.805307,-0.0186 -1.492504,-0.0406 -0.687196,-0.022 -1.254377,-0.035 -1.260402,-0.0288 -0.006,0.006 0.0037,0.15327 0.02152,0.32698 0.01786,0.1737 0.02696,0.32143 0.02023,0.32828 -0.0067,0.007 -0.0345,-0.14109 -0.0617,-0.32877 l -0.04946,-0.34124 -0.293707,-0.003 c -0.508503,-0.006 -0.50651,-6.4e-4 -0.109056,-0.2819 l 0.343127,-0.24282 -0.0091,-0.5634 c -0.03982,-2.4641 0.77364,-4.80835 2.315803,-6.67373 0.323082,-0.3908 0.965749,-1.03345 1.341142,-1.34111 0.397794,-0.32602 1.058894,-0.77087 1.504938,-1.01266 1.0667939,-0.57827 2.1565879,-0.92258 3.4444449,-1.08821 0.437652,-0.0563 1.722389,-0.0471 2.180555,0.0156 1.832661,0.25077 3.327262,0.89584 4.82422,2.08213 0.30935,0.24515 1.211298,1.16475 1.471049,1.49984 0.476084,0.61417 0.791402,1.11263 1.123763,1.77645 0.987181,1.9717 1.300439,4.26939 0.886118,6.49953 -0.246455,1.32657 -0.779558,2.6324 -1.535338,3.7608 -0.627413,0.93674 -1.489254,1.83483 -2.394812,2.49555 -1.335838,0.97467 -2.922303,1.58534 -4.569444,1.75892 -0.409472,0.0432 -1.202452,0.0588 -1.583334,0.0312 z m 0.458334,-0.71923 c 2.153254,-0.3308 4.026197,-1.44049 5.344227,-3.16638 0.985179,-1.29004 1.583856,-2.83733 1.741762,-4.5016 0.04735,-0.49906 0.0176,-1.59651 -0.05638,-2.07951 -0.186004,-1.21442 -0.62043,-2.38955 -1.256961,-3.40009 -0.07775,-0.12343 -0.151067,-0.21407 -0.162932,-0.20141 -0.01187,0.0127 -0.374322,0.95864 -0.80546,2.10221 -0.431138,1.14356 -0.785703,2.08169 -0.787922,2.08473 -0.0022,0.003 -0.383346,-0.10198 -0.84695,-0.23338 -0.463604,-0.1314 -0.852298,-0.23891 -0.863764,-0.23891 -0.01147,0 -0.180237,0.28666 -0.375047,0.63702 -0.194811,0.35036 -0.363722,0.643 -0.375359,0.65033 -0.01164,0.007 -0.256945,-0.10255 -0.54513,-0.24416 -0.288185,-0.14162 -0.57643,-0.28076 -0.640545,-0.30922 l -0.116573,-0.0517 -0.309231,0.61363 c -0.170076,0.33749 -0.319763,0.62472 -0.332637,0.63828 -0.01315,0.0138 -0.325606,-0.0936 -0.713291,-0.24524 -0.379436,-0.14844 -0.706179,-0.2741 -0.726094,-0.27925 -0.02496,-0.006 -0.178076,0.40277 -0.492851,1.31721 -0.43009,1.24944 -0.478516,1.40327 -0.441749,1.40327 0.01679,0 2.507386,0.67399 2.561736,0.69324 0.02104,0.007 0.212564,-0.25857 0.480972,-0.66807 0.301787,-0.46041 0.458373,-0.67562 0.484238,-0.66551 0.02102,0.008 0.245948,0.15634 0.499831,0.32917 0.253883,0.17282 0.477287,0.32035 0.496453,0.32784 0.02118,0.008 0.25554,-0.30292 0.597647,-0.7936 0.30954,-0.44398 0.565432,-0.80723 0.568648,-0.80723 0.0032,0 0.249164,0.0997 0.54655,0.22158 0.459815,0.18843 0.539344,0.22969 0.531628,0.27581 -0.005,0.0298 -0.226723,0.72892 -0.49274,1.55353 l -0.483666,1.4993 -0.63226,0.23246 c -0.347743,0.12786 -0.84476,0.31041 -1.104483,0.40566 -0.259722,0.0953 -0.622222,0.22837 -0.805555,0.29581 -0.183333,0.0674 -1.014583,0.37271 -1.847222,0.67837 -0.83264,0.30567 -1.898542,0.69715 -2.3686729,0.86997 -0.484079,0.17794 -0.844312,0.32487 -0.830639,0.33879 0.04361,0.0444 0.526812,0.24593 0.869118,0.36247 0.5771099,0.19646 1.2322689,0.33639 1.8996379,0.40572 0.264325,0.0275 1.511907,-0.008 1.791667,-0.0511 z m -7.7638889,-9.70613 c 0.825,-0.57759 1.71986,-1.20424 1.988579,-1.39256 l 0.48858,-0.34239 0.594754,-0.12789 c 0.327114,-0.0703 1.3322529,-0.28812 2.2336419,-0.48397 0.901389,-0.19585 1.957639,-0.42504 2.347223,-0.5093 0.389583,-0.0843 1.270833,-0.27536 1.958333,-0.42465 0.6875,-0.14928 1.56875,-0.33983 1.958333,-0.42343 0.987574,-0.21195 1.512027,-0.32956 1.524633,-0.34192 0.01814,-0.0178 -0.293181,-0.39629 -0.557699,-0.67807 -1.346225,-1.43407 -3.10596,-2.30864 -5.091934,-2.53064 -0.373925,-0.0418 -1.283281,-0.0343 -1.694614,0.0139 -1.8163659,0.21308 -3.4446219,0.99827 -4.7681179,2.29931 -1.278919,1.25722 -2.137789,2.91468 -2.438116,4.70509 -0.108273,0.64548 -0.150656,1.35349 -0.07832,1.30832 0.0191,-0.0119 0.709722,-0.49425 1.534722,-1.07184 z"
       id="path21"
       inkscape:connector-curvature="0"
       inkscape:transform-center-x="28.442708"
       inkscape:transform-center-y="5.9531248" />
  </g>
</svg>
